# 3ds Max Wavefront OBJ Exporter v0.97b - (c)2007 guruware
# 创建的文件:19.06.2019 18:16:44

mtllib light.mtl

#
# object dk
#

#
# object Mesh01
#

v  35.5042 0.0000 0.0136
v  35.7542 0.0000 0.0136
v  35.7542 -36.0000 0.0136
v  35.5042 -36.0000 0.0136
v  35.7542 0.0000 -0.2364
v  35.7542 -36.0000 -0.2364
v  35.5042 0.0000 -0.2364
v  35.5042 -36.0000 -0.2364
# 8 vertices

vn 0.0000 0.0000 -1.0000
vn -1.0000 0.0000 -0.0000
vn 0.0000 0.0000 1.0000
vn 1.0000 0.0000 -0.0000
# 4 vertex normals

vt -35.5042 0.0000 0.0000
vt -35.7542 0.0000 0.0000
vt -35.7542 -36.0000 0.0000
vt -35.5042 -36.0000 0.0000
vt -0.2364 0.0000 0.0000
vt -0.2364 -36.0000 0.0000
vt 0.0136 -36.0000 0.0000
vt 0.0136 0.0000 0.0000
vt 35.7542 0.0000 0.0000
vt 35.5042 0.0000 0.0000
vt 35.5042 -36.0000 0.0000
vt 35.7542 -36.0000 0.0000
vt -0.0136 0.0000 0.0000
vt -0.0136 -36.0000 0.0000
vt 0.2364 -36.0000 0.0000
vt 0.2364 0.0000 0.0000
# 16 texture coords

o Mesh01
g Mesh01
usemtl _Snow_
s off
f 1/1/1 2/2/1 3/3/1 4/4/1 
f 5/5/2 6/6/2 3/7/2 2/8/2 
f 5/9/3 7/10/3 8/11/3 6/12/3 
f 1/13/4 4/14/4 8/15/4 7/16/4 
# 4 polygons

#
# object Mesh02
#

v  0.0000 0.0000 -0.0000
v  0.2500 0.0000 -0.0000
v  0.2500 -36.0000 0.0000
v  0.0000 -36.0000 0.0000
v  0.2500 0.0000 -0.2500
v  0.2500 -36.0000 -0.2500
v  0.0000 0.0000 -0.2500
v  0.0000 -36.0000 -0.2500
# 8 vertices

vn 0.7071 -0.0000 -0.7071
vn 0.0000 -0.0000 -1.0000
vn -1.0000 0.0000 -0.0000
vn 0.0000 0.0000 1.0000
vn 1.0000 0.0000 -0.0000
# 5 vertex normals

vt 0.0000 0.0000 0.0000
vt -0.2500 0.0000 0.0000
vt -0.2500 -36.0000 0.0000
vt 0.0000 -36.0000 0.0000
vt 0.2500 0.0000 0.0000
vt 0.2500 -36.0000 0.0000
vt -0.0000 -36.0000 0.0000
# 7 texture coords

o Mesh02
g Mesh02
usemtl _Snow_
s off
f 9/17/5 10/18/6 11/19/6 12/20/6 
f 10/17/7 13/18/7 14/19/7 11/20/7 
f 13/21/8 15/17/8 16/20/8 14/22/8 
f 9/17/5 12/23/9 16/22/9 15/21/9 
# 4 polygons

#
# object Mesh03
#

v  47.8509 -36.2937 -1.2736
v  -12.1491 -36.2937 -1.2736
v  -12.1491 -36.7809 -1.2736
v  47.8509 -36.7809 -1.2736
v  47.8509 -36.1272 -0.9052
v  -12.1491 -36.1272 -0.9052
v  47.8509 -36.9474 -0.9052
v  47.8509 -37.0493 -0.5141
v  47.8509 -37.0835 -0.1114
v  47.8509 -36.0254 -0.5141
v  47.8509 -37.0493 0.2914
v  47.8509 -35.9911 -0.1114
v  47.8509 -36.9474 0.6825
v  47.8509 -36.0254 0.2914
v  47.8509 -36.7809 1.0508
v  47.8509 -36.1272 0.6825
v  47.8509 -36.2937 1.0508
v  -12.1491 -36.7809 1.0508
v  -12.1491 -36.2937 1.0508
v  -12.1491 -36.9474 0.6825
v  -12.1491 -37.0493 0.2914
v  -12.1491 -37.0835 -0.1114
v  -12.1491 -37.0493 -0.5141
v  -12.1491 -36.9474 -0.9052
v  -12.1491 -36.0254 -0.5141
v  -12.1491 -35.9911 -0.1114
v  -12.1491 -36.0254 0.2914
v  -12.1491 -36.1272 0.6825
# 28 vertices

vn 0.0000 0.0000 1.0000
vn 0.0000 -0.9112 0.4119
vn -1.0000 0.0000 -0.0000
vn 0.0000 0.0000 -1.0000
vn 0.0000 0.9112 -0.4119
vn 0.0000 0.9677 -0.2520
vn 0.0000 0.9964 -0.0848
vn 0.0000 0.9964 0.0848
vn 0.0000 0.9677 0.2520
vn 0.0000 0.9112 0.4119
vn 1.0000 0.0000 -0.0000
vn 0.0000 -0.9112 -0.4119
vn 0.0000 -0.9677 -0.2520
vn 0.0000 -0.9964 -0.0848
vn 0.0000 -0.9964 0.0848
vn 0.0000 -0.9677 0.2520
# 16 vertex normals

vt 47.8509 -36.2937 0.0000
vt -12.1491 -36.2937 0.0000
vt -12.1491 -36.7809 0.0000
vt 47.8509 -36.7809 0.0000
vt 47.8509 -16.1092 0.0000
vt 47.8509 -15.7050 0.0000
vt -12.1491 -15.7050 0.0000
vt -12.1491 -16.1092 0.0000
vt -0.9052 -36.9474 0.0000
vt -0.5141 -37.0493 0.0000
vt -0.9052 -36.1272 0.0000
vt -1.2736 -36.2937 0.0000
vt -0.1114 -37.0835 0.0000
vt -0.5141 -36.0254 0.0000
vt 0.2914 -37.0493 0.0000
vt -0.1114 -35.9911 0.0000
vt 0.6825 -36.9474 0.0000
vt 0.2914 -36.0254 0.0000
vt 1.0508 -36.7809 0.0000
vt 0.6825 -36.1272 0.0000
vt 1.0508 -36.2937 0.0000
vt -47.8509 -36.7809 0.0000
vt 12.1491 -36.7809 0.0000
vt 12.1491 -36.2937 0.0000
vt -47.8509 -36.2937 0.0000
vt -47.8509 -14.1918 0.0000
vt -47.8509 -14.5960 0.0000
vt 12.1491 -14.5960 0.0000
vt 12.1491 -14.1918 0.0000
vt -47.8509 -8.6490 0.0000
vt -47.8509 -9.0531 0.0000
vt 12.1491 -9.0531 0.0000
vt 12.1491 -8.6490 0.0000
vt -47.8509 -2.8515 0.0000
vt -47.8509 -3.2557 0.0000
vt 12.1491 -3.2557 0.0000
vt 12.1491 -2.8515 0.0000
vt 47.8509 -3.0338 0.0000
vt 47.8509 -2.6296 0.0000
vt -12.1491 -2.6296 0.0000
vt -12.1491 -3.0338 0.0000
vt 47.8509 -8.8376 0.0000
vt 47.8509 -8.4334 0.0000
vt -12.1491 -8.4334 0.0000
vt -12.1491 -8.8376 0.0000
vt 47.8509 -14.3930 0.0000
vt 47.8509 -13.9888 0.0000
vt -12.1491 -13.9888 0.0000
vt -12.1491 -14.3930 0.0000
vt -1.2736 -36.7809 0.0000
vt 1.2736 -36.2937 0.0000
vt 0.9052 -36.1272 0.0000
vt 0.9052 -36.9474 0.0000
vt 1.2736 -36.7809 0.0000
vt 0.5141 -36.0254 0.0000
vt 0.5141 -37.0493 0.0000
vt 0.1114 -35.9911 0.0000
vt 0.1114 -37.0835 0.0000
vt -0.2914 -36.0254 0.0000
vt -0.2914 -37.0493 0.0000
vt -0.6825 -36.1272 0.0000
vt -0.6825 -36.9474 0.0000
vt -1.0508 -36.2937 0.0000
vt -1.0508 -36.7809 0.0000
vt -47.8509 -15.5020 0.0000
vt -47.8509 -15.9062 0.0000
vt 12.1491 -15.9062 0.0000
vt 12.1491 -15.5020 0.0000
vt 12.1491 -9.7633 0.0000
vt 12.1491 -9.3591 0.0000
vt -47.8509 -9.3591 0.0000
vt -47.8509 -9.7633 0.0000
vt 12.1491 -3.3453 0.0000
vt 12.1491 -2.9411 0.0000
vt -47.8509 -2.9411 0.0000
vt -47.8509 -3.3453 0.0000
vt -12.1491 -3.1631 0.0000
vt -12.1491 -3.5672 0.0000
vt 47.8509 -3.5672 0.0000
vt 47.8509 -3.1631 0.0000
vt -12.1491 -9.5746 0.0000
vt -12.1491 -9.9788 0.0000
vt 47.8509 -9.9788 0.0000
vt 47.8509 -9.5746 0.0000
# 84 texture coords

o Mesh03
g Mesh03
usemtl FrontCol
s off
f 17/24/10 18/25/10 19/26/10 20/27/10 
s 1
f 17/28/11 21/29/11 22/30/11 18/31/11 
s off
f 23/32/12 24/33/12 21/34/12 17/35/12 
f 24/33/12 25/36/12 26/37/12 21/34/12 
f 25/36/12 27/38/12 28/39/12 26/37/12 
f 27/38/12 29/40/12 30/41/12 28/39/12 
f 29/40/12 31/42/12 32/43/12 30/41/12 
f 32/43/12 31/42/12 33/44/12 
f 31/45/13 34/46/13 35/47/13 33/48/13 
s 1
f 31/49/14 29/50/14 36/51/14 34/52/14 
f 29/53/15 27/54/15 37/55/15 36/56/15 
f 27/57/16 25/58/16 38/59/16 37/60/16 
f 25/61/17 24/62/17 39/63/17 38/64/17 
f 24/65/18 23/66/18 40/67/18 39/68/18 
f 23/69/19 20/70/19 19/71/19 40/72/19 
s off
f 23/32/12 17/35/12 20/73/12 
f 18/74/20 22/75/20 40/76/20 19/77/20 
f 22/75/20 41/78/20 39/79/20 40/76/20 
f 41/78/20 42/80/20 38/81/20 39/79/20 
f 42/80/20 43/82/20 37/83/20 38/81/20 
f 43/82/20 44/84/20 36/85/20 37/83/20 
f 44/84/20 35/86/20 34/87/20 36/85/20 
s 1
f 32/88/21 33/89/21 35/90/21 44/91/21 
f 44/92/22 43/93/22 30/94/22 32/95/22 
f 43/96/23 42/97/23 28/98/23 30/99/23 
f 42/100/24 41/101/24 26/102/24 28/103/24 
f 41/104/25 22/105/25 21/106/25 26/107/25 
# 25 polygons - 2 triangles

#
# object tube1
#

v  47.8509 -36.5373 -4.0325
v  47.8509 -36.8483 -3.9243
v  47.8509 -37.1119 -3.6160
v  47.8509 -36.2264 -3.9243
v  -12.1491 -36.5373 -4.0325
v  -12.1491 -36.8483 -3.9243
v  -12.1491 -36.2264 -3.9243
v  47.8509 -35.9628 -3.6160
v  -12.1491 -35.9628 -3.6160
v  47.8509 -35.7867 -3.1548
v  -9.1491 -37.1119 -3.6160
v  44.8509 -37.1119 -3.6160
v  -12.1491 -37.1119 -3.6160
v  -12.1491 -35.7867 -3.1548
v  -12.1491 -37.2880 -3.1548
v  -12.1491 -37.3498 -2.6106
v  -9.1491 -37.2880 -3.1548
v  44.8509 -37.2880 -3.1548
v  47.8509 -37.2880 -3.1548
v  47.8509 -37.3498 -2.6106
v  47.8509 -35.7248 -2.6106
v  47.8509 -37.2880 -2.0665
v  -12.1491 -35.7248 -2.6106
v  -12.1491 -37.2880 -2.0665
v  -9.1491 -37.2880 -2.0665
v  -9.1491 -37.3498 -2.6106
v  44.8509 -37.3498 -2.6106
v  44.8509 -37.2880 -2.0665
v  47.8509 -35.7867 -2.0665
v  47.8509 -35.9628 -1.6052
v  -12.1491 -35.7867 -2.0665
v  -12.1491 -37.1119 -1.6052
v  -9.1491 -37.1119 -1.6052
v  44.8509 -37.1119 -1.6052
v  47.8509 -37.1119 -1.6052
v  47.8509 -36.2264 -1.2970
v  -12.1491 -36.2264 -1.2970
v  -12.1491 -35.9628 -1.6052
v  -12.1491 -36.8483 -1.2970
v  47.8509 -36.8483 -1.2970
v  47.8509 -36.7809 -1.2736
v  47.8509 -36.2937 -1.2736
v  -12.1491 -36.2937 -1.2736
v  -12.1491 -36.7809 -1.2736
# 44 vertices

vn -1.0000 0.0000 -0.0000
vn 0.0000 0.0000 1.0000
vn 0.0000 0.3287 0.9444
vn 0.0000 -0.3288 0.9444
vn 0.0000 -0.7600 0.6499
vn 0.0000 0.7600 0.6499
vn 1.0000 0.0000 -0.0000
vn 0.0000 0.9342 0.3567
vn 0.0000 -0.9342 -0.3567
vn 0.0000 -0.9716 -0.2367
vn 0.0000 -0.9936 0.1129
vn 0.0000 0.9936 -0.1129
vn 0.0000 -1.0000 -0.0000
vn 0.0000 -0.9716 0.2367
vn 0.0000 -0.9936 -0.1129
vn 0.0000 0.9342 -0.3567
vn 0.0000 -0.9342 0.3567
vn 0.0000 -0.7600 -0.6499
vn 0.0000 0.7600 -0.6499
vn 0.0000 -0.3287 -0.9444
vn 0.0000 0.0000 -1.0000
vn 0.0000 0.3287 -0.9444
vn 0.0000 0.9936 0.1129
# 23 vertex normals

vt 0.0000 0.8125 0.0000
vt -0.1082 0.5016 0.0000
vt -0.4165 0.2380 0.0000
vt -0.1082 1.1234 0.0000
vt 0.0000 0.7673 0.0000
vt 60.0000 0.7673 0.0000
vt 60.0000 0.4381 0.0000
vt 0.0000 0.4381 0.0000
vt 0.0000 1.0966 0.0000
vt 60.0000 1.0966 0.0000
vt 0.0000 0.8124 0.0000
vt 0.0000 1.2180 0.0000
vt 60.0000 1.2180 0.0000
vt 60.0000 0.8124 0.0000
vt -0.4165 1.3870 0.0000
vt -0.8777 1.5632 0.0000
vt 0.0000 -0.1618 0.0000
vt 0.0000 0.2437 0.0000
vt 57.0000 -0.1618 0.0000
vt 3.0000 -0.1618 0.0000
vt 60.0000 0.2437 0.0000
vt 60.0000 -0.1618 0.0000
vt 0.4165 0.2380 0.0000
vt 0.1082 0.5016 0.0000
vt 0.1082 1.1234 0.0000
vt 0.4165 1.3870 0.0000
vt 0.8777 1.5632 0.0000
vt 0.8777 0.0618 0.0000
vt 1.4219 0.0000 0.0000
vt 60.0000 -0.3042 0.0000
vt 60.0000 -0.7979 0.0000
vt 57.0000 -0.7979 0.0000
vt 57.0000 -0.3042 0.0000
vt 1.3794 0.0000 0.0000
vt 0.0000 0.0000 0.0000
vt 0.0000 216.0000 0.0000
vt 1.3794 216.0000 0.0000
vt 3.0000 -0.3042 0.0000
vt 3.0000 -0.7979 0.0000
vt 0.0000 -0.7979 0.0000
vt 0.0000 -0.3042 0.0000
vt -0.8777 0.0618 0.0000
vt -1.4219 0.0000 0.0000
vt -1.4219 1.6250 0.0000
vt -1.9660 0.0618 0.0000
vt 0.0000 1.0487 0.0000
vt 0.0000 1.5963 0.0000
vt 60.0000 1.5963 0.0000
vt 60.0000 1.0487 0.0000
vt 1.4219 1.6250 0.0000
vt 1.9660 0.0618 0.0000
vt -60.0000 1.4128 0.0000
vt -60.0000 1.9604 0.0000
vt -57.0000 1.9604 0.0000
vt -57.0000 1.4128 0.0000
vt 5.4563 0.0000 0.0000
vt 3.4179 0.0000 0.0000
vt 3.4179 216.0000 0.0000
vt 5.4563 216.0000 0.0000
vt -3.0000 1.4128 0.0000
vt -3.0000 1.9604 0.0000
vt 0.0000 1.9604 0.0000
vt 0.0000 1.4128 0.0000
vt -1.9660 1.5632 0.0000
vt -2.4273 1.3870 0.0000
vt 0.0000 -1.2293 0.0000
vt 0.0000 -1.7769 0.0000
vt -60.0000 -1.7769 0.0000
vt -60.0000 -1.2293 0.0000
vt 1.9660 1.5632 0.0000
vt 2.4273 0.2380 0.0000
vt -60.0000 1.8587 0.0000
vt -60.0000 2.3525 0.0000
vt -57.0000 2.3525 0.0000
vt -57.0000 1.8587 0.0000
vt 6.8357 0.0000 0.0000
vt 6.8357 216.0000 0.0000
vt -3.0000 1.8587 0.0000
vt -3.0000 2.3525 0.0000
vt 0.0000 2.3525 0.0000
vt 0.0000 1.8587 0.0000
vt -2.4273 0.2380 0.0000
vt -2.7355 1.1234 0.0000
vt 0.0000 -0.9432 0.0000
vt 0.0000 -1.3488 0.0000
vt -60.0000 -1.3488 0.0000
vt -60.0000 -0.9432 0.0000
vt 2.7355 1.1234 0.0000
vt 2.7355 0.5016 0.0000
vt 2.4273 1.3870 0.0000
vt -60.0000 1.9994 0.0000
vt -60.0000 2.4049 0.0000
vt 0.0000 2.4049 0.0000
vt -57.0000 1.9994 0.0000
vt -3.0000 1.9994 0.0000
vt 0.0000 1.9994 0.0000
vt -2.7355 0.5016 0.0000
vt -2.7589 0.5689 0.0000
vt -2.7589 1.0561 0.0000
vt 0.0000 0.0904 0.0000
vt -60.0000 0.0904 0.0000
vt -60.0000 0.1617 0.0000
vt 0.0000 0.1617 0.0000
vt -60.0000 1.0561 0.0000
vt 0.0000 1.0561 0.0000
vt 0.0000 0.5689 0.0000
vt -60.0000 0.5689 0.0000
vt -60.0000 1.4443 0.0000
vt 0.0000 1.4443 0.0000
vt 0.0000 1.3730 0.0000
vt -60.0000 1.3730 0.0000
vt 2.7589 0.5689 0.0000
vt 2.7589 1.0561 0.0000
vt -60.0000 -1.7729 0.0000
vt -60.0000 -1.2791 0.0000
vt 0.0000 -1.2791 0.0000
vt 0.0000 -1.7729 0.0000
vt 0.0000 -1.4128 0.0000
vt 0.0000 -0.8651 0.0000
vt 3.0000 -0.8651 0.0000
vt 3.0000 -1.4128 0.0000
vt 57.0000 -1.4128 0.0000
vt 57.0000 -0.8651 0.0000
vt 60.0000 -0.8651 0.0000
vt 60.0000 -1.4128 0.0000
vt 60.0000 1.3776 0.0000
vt 60.0000 0.8838 0.0000
vt 0.0000 0.8838 0.0000
vt 0.0000 1.3776 0.0000
# 129 texture coords

o tube1
g tube1
usemtl FrontCol
s off
f 45/108/26 46/109/26 47/110/26 48/111/26 
s 1
f 45/112/27 49/113/27 50/114/28 46/115/28 
f 49/113/27 45/112/27 48/116/29 51/117/29 
f 48/118/30 52/119/30 53/120/30 51/121/30 
s off
f 52/122/26 48/111/26 47/110/26 54/123/26 
s 3
f 47/124/31 46/125/31 55/126/31 56/127/31 
s 1
f 55/126/31 46/125/31 50/128/31 57/129/31 
s off
f 57/130/32 50/131/32 49/108/32 51/132/32 
f 53/133/32 58/134/32 57/130/32 51/132/32 
f 59/135/32 57/130/32 58/134/32 60/136/32 
s 1
f 57/137/33 59/138/33 61/139/33 55/140/33 
usemtl _Ivory_
s 2
f 61/141/34 55/142/34 56/143/34 62/144/35 
usemtl FrontCol
s 1
f 56/145/33 62/146/33 63/147/33 47/148/33 
s off
f 63/149/26 64/150/26 54/123/26 47/110/26 
f 65/151/26 54/123/26 64/150/26 66/152/26 
s 1
f 54/153/36 65/154/36 67/155/36 58/156/36 
s off
f 67/157/32 68/158/32 60/136/32 58/134/32 
s 1
f 60/159/37 68/160/37 69/161/37 70/162/37 
usemtl _Ivory_
s 2
f 69/163/36 70/164/36 71/165/38 72/166/39 
usemtl FrontCol
s 1
f 71/167/37 72/168/37 66/169/37 64/170/37 
s off
f 73/171/26 65/151/26 66/152/26 74/172/26 
s 1
f 65/173/40 73/174/40 75/175/40 67/176/40 
s off
f 75/177/32 76/178/32 68/158/32 67/157/32 
s 1
f 68/179/41 76/180/41 77/181/41 69/182/41 
usemtl _Ivory_
s 2
f 77/183/42 69/163/42 72/166/39 78/184/42 
usemtl FrontCol
s 1
f 72/185/41 78/186/41 79/187/41 66/188/41 
s off
f 79/189/26 80/190/26 74/172/26 66/152/26 
s 1
f 74/191/43 80/192/43 81/193/43 82/194/43 
s off
f 81/195/32 83/196/32 76/178/32 82/197/32 
s 1
f 76/198/44 83/199/44 84/200/44 77/201/44 
f 78/202/44 77/201/44 84/200/44 79/203/44 
s off
f 84/204/26 85/205/26 80/190/26 79/189/26 
f 86/206/26 80/190/26 85/205/26 
s 1
f 86/207/45 87/208/45 81/209/45 80/210/45 
s off
f 87/211/46 86/212/46 85/213/46 88/214/46 
s 1
f 88/215/47 85/216/47 84/217/47 83/218/47 
s off
f 88/219/32 83/196/32 81/195/32 87/220/32 
f 82/197/32 76/178/32 75/177/32 
s 1
f 82/221/34 75/222/34 73/223/34 74/224/34 
f 64/225/48 63/226/48 62/227/48 71/228/48 
usemtl _Ivory_
s 2
f 62/144/35 71/165/38 70/164/40 61/141/40 
usemtl FrontCol
s 1
f 70/229/48 61/230/48 59/231/48 60/232/48 
f 58/233/42 53/234/42 52/235/42 54/236/42 
# 41 polygons - 2 triangles

#
# object tube2
#

v  47.8509 -36.2264 3.7015
v  47.8509 -37.1119 3.3933
v  47.8509 -36.8483 3.7015
v  47.8509 -36.5373 3.8098
v  47.8509 -35.9628 3.3933
v  47.8509 -35.7867 2.9320
v  -12.1491 -36.2264 3.7015
v  -12.1491 -35.9628 3.3933
v  -12.1491 -36.8483 3.7015
v  -12.1491 -37.1119 3.3933
v  -12.1491 -36.5373 3.8098
v  -9.1491 -37.1119 3.3933
v  44.8509 -37.1119 3.3933
v  47.8509 -37.2880 2.9320
v  44.8509 -37.2880 2.9320
v  47.8509 -37.3498 2.3879
v  -12.1491 -35.7867 2.9320
v  -12.1491 -37.2880 2.9320
v  -9.1491 -37.2880 2.9320
v  -9.1491 -37.3498 2.3879
v  44.8509 -37.3498 2.3879
v  -12.1491 -37.3498 2.3879
v  -12.1491 -35.7248 2.3879
v  -12.1491 -37.2880 1.8438
v  -12.1491 -35.7867 1.8438
v  -9.1491 -37.2880 1.8438
v  44.8509 -37.2880 1.8438
v  47.8509 -37.2880 1.8438
v  47.8509 -35.7248 2.3879
v  47.8509 -35.7867 1.8438
v  -12.1491 -37.1119 1.3825
v  -12.1491 -35.9628 1.3825
v  -9.1491 -37.1119 1.3825
v  44.8509 -37.1119 1.3825
v  47.8509 -37.1119 1.3825
v  47.8509 -35.9628 1.3825
v  -12.1491 -36.8483 1.0742
v  -12.1491 -36.2264 1.0742
v  47.8509 -36.8483 1.0742
v  47.8509 -36.2264 1.0742
v  -12.1491 -36.2937 1.0508
v  47.8509 -36.2937 1.0508
v  -12.1491 -36.7809 1.0508
v  47.8509 -36.7809 1.0508
# 44 vertices

vn -1.0000 0.0000 -0.0000
vn 0.0000 -0.7600 -0.6499
vn 1.0000 0.0000 -0.0000
vn 0.0000 -0.3288 -0.9444
vn 0.0000 -0.0000 -1.0000
vn 0.0000 0.3287 -0.9444
vn 0.0000 0.7600 -0.6499
vn 0.0000 0.9342 -0.3567
vn 0.0000 -0.9342 -0.3567
vn 0.0000 -0.9716 0.2367
vn 0.0000 -0.9342 0.3567
vn 0.0000 -0.9936 0.1129
vn 0.0000 -1.0000 -0.0000
vn 0.0000 0.9936 -0.1129
vn 0.0000 0.9936 0.1129
vn 0.0000 -0.9716 -0.2367
vn 0.0000 -0.9936 -0.1129
vn 0.0000 0.9342 0.3567
vn 0.0000 0.7600 0.6499
vn 0.0000 -0.7600 0.6499
vn 0.0000 -0.3287 0.9444
vn 0.0000 0.0000 1.0000
vn 0.0000 0.3287 0.9444
# 23 vertex normals

vt -0.1082 1.1234 0.0000
vt -0.4165 0.2380 0.0000
vt -0.1082 0.5016 0.0000
vt 0.0000 0.8125 0.0000
vt -0.4165 1.3870 0.0000
vt -0.8777 1.5632 0.0000
vt 60.0000 0.8124 0.0000
vt 60.0000 1.2180 0.0000
vt 0.0000 1.2180 0.0000
vt 0.0000 0.8124 0.0000
vt 0.1082 1.1234 0.0000
vt 0.1082 0.5016 0.0000
vt 0.4165 0.2380 0.0000
vt 0.4165 1.3870 0.0000
vt 60.0000 1.0966 0.0000
vt 0.0000 1.0966 0.0000
vt 0.0000 0.7673 0.0000
vt 60.0000 0.7673 0.0000
vt 0.0000 0.4381 0.0000
vt 60.0000 0.4381 0.0000
vt 0.0000 0.2437 0.0000
vt 57.0000 -0.1618 0.0000
vt 60.0000 -0.1618 0.0000
vt 60.0000 0.2437 0.0000
vt 0.0000 -0.1618 0.0000
vt 3.0000 -0.1618 0.0000
vt 0.0000 -0.3042 0.0000
vt 0.0000 -0.7979 0.0000
vt 3.0000 -0.7979 0.0000
vt 3.0000 -0.3042 0.0000
vt -1.4219 0.0000 0.0000
vt -0.8777 0.0618 0.0000
vt 60.0000 0.8838 0.0000
vt 60.0000 1.3776 0.0000
vt 0.0000 1.3776 0.0000
vt 0.0000 0.8838 0.0000
vt 0.8777 0.0618 0.0000
vt 0.8777 1.5632 0.0000
vt 57.0000 -0.3042 0.0000
vt 57.0000 -0.7979 0.0000
vt 60.0000 -0.7979 0.0000
vt 60.0000 -0.3042 0.0000
vt 1.3794 216.0000 0.0000
vt 0.0000 216.0000 0.0000
vt 0.0000 0.0000 0.0000
vt 1.3794 0.0000 0.0000
vt 3.4179 0.0000 0.0000
vt 3.4179 216.0000 0.0000
vt 60.0000 -1.4128 0.0000
vt 60.0000 -0.8651 0.0000
vt 57.0000 -0.8651 0.0000
vt 57.0000 -1.4128 0.0000
vt 1.4219 0.0000 0.0000
vt 1.4219 1.6250 0.0000
vt 1.9660 0.0618 0.0000
vt 1.9660 1.5632 0.0000
vt -57.0000 1.4128 0.0000
vt -57.0000 1.9604 0.0000
vt -60.0000 1.9604 0.0000
vt -60.0000 1.4128 0.0000
vt 5.4563 216.0000 0.0000
vt 5.4563 0.0000 0.0000
vt 0.0000 1.4128 0.0000
vt 0.0000 1.9604 0.0000
vt -3.0000 1.9604 0.0000
vt -3.0000 1.4128 0.0000
vt -1.4219 1.6250 0.0000
vt -1.9660 0.0618 0.0000
vt 3.0000 -1.4128 0.0000
vt 3.0000 -0.8651 0.0000
vt 0.0000 -0.8651 0.0000
vt 0.0000 -1.4128 0.0000
vt 60.0000 1.0487 0.0000
vt 60.0000 1.5963 0.0000
vt 0.0000 1.5963 0.0000
vt 0.0000 1.0487 0.0000
vt -60.0000 -1.2293 0.0000
vt -60.0000 -1.7769 0.0000
vt 0.0000 -1.7769 0.0000
vt 0.0000 -1.2293 0.0000
vt 2.4273 0.2380 0.0000
vt 2.4273 1.3870 0.0000
vt -57.0000 1.8587 0.0000
vt -57.0000 2.3525 0.0000
vt -60.0000 2.3525 0.0000
vt -60.0000 1.8587 0.0000
vt 6.8357 216.0000 0.0000
vt 6.8357 0.0000 0.0000
vt 0.0000 1.8587 0.0000
vt 0.0000 2.3525 0.0000
vt -3.0000 2.3525 0.0000
vt -3.0000 1.8587 0.0000
vt -1.9660 1.5632 0.0000
vt -2.4273 1.3870 0.0000
vt -2.4273 0.2380 0.0000
vt -60.0000 -1.2791 0.0000
vt -60.0000 -1.7729 0.0000
vt 0.0000 -1.7729 0.0000
vt 0.0000 -1.2791 0.0000
vt 2.7355 0.5016 0.0000
vt 2.7355 1.1234 0.0000
vt -57.0000 1.9994 0.0000
vt 0.0000 2.4049 0.0000
vt -60.0000 2.4049 0.0000
vt -60.0000 1.9994 0.0000
vt -3.0000 1.9994 0.0000
vt 0.0000 1.9994 0.0000
vt -2.7355 1.1234 0.0000
vt -2.7355 0.5016 0.0000
vt -60.0000 -0.9432 0.0000
vt -60.0000 -1.3488 0.0000
vt 0.0000 -1.3488 0.0000
vt 0.0000 -0.9432 0.0000
vt -60.0000 0.0904 0.0000
vt 0.0000 0.0904 0.0000
vt 0.0000 0.1617 0.0000
vt -60.0000 0.1617 0.0000
vt -60.0000 0.5689 0.0000
vt 0.0000 0.5689 0.0000
vt 0.0000 1.0561 0.0000
vt -60.0000 1.0561 0.0000
vt -60.0000 1.3730 0.0000
vt 0.0000 1.3730 0.0000
vt 0.0000 1.4443 0.0000
vt -60.0000 1.4443 0.0000
vt -2.7589 1.0561 0.0000
vt -2.7589 0.5689 0.0000
vt 2.7589 0.5689 0.0000
vt 2.7589 1.0561 0.0000
# 129 texture coords

o tube2
g tube2
usemtl FrontCol
s off
f 89/237/49 90/238/49 91/239/49 92/240/49 
f 90/238/49 89/237/49 93/241/49 94/242/49 
s 1
f 95/243/50 96/244/50 93/245/50 89/246/50 
s off
f 95/247/51 97/248/51 98/249/51 96/250/51 
f 97/248/51 95/247/51 99/240/51 
s 1
f 95/251/52 89/252/52 92/253/53 99/254/53 
f 91/255/54 97/256/54 99/254/53 92/253/53 
f 91/257/55 100/258/55 98/259/55 97/260/55 
s 3
f 100/258/55 91/257/55 90/261/55 101/262/55 
s 2
f 90/263/56 102/264/56 103/265/56 101/266/56 
s off
f 90/238/49 94/242/49 104/267/49 102/268/49 
s 1
f 96/269/57 105/270/57 94/271/57 93/272/57 
s off
f 96/250/51 98/249/51 106/273/51 105/274/51 
s 1
f 100/275/56 107/276/56 106/277/56 98/278/56 
usemtl _Ivory_
s 7
f 103/279/58 101/280/59 100/281/59 107/282/59 
s 4
f 107/282/60 108/283/60 109/284/61 103/279/58 
usemtl FrontCol
s 1
f 110/285/62 106/286/62 107/287/62 108/288/62 
s off
f 105/274/51 106/273/51 110/289/51 111/290/51 
f 111/290/51 110/289/51 112/291/51 113/292/51 
s 1
f 108/293/63 114/294/63 112/295/63 110/296/63 
usemtl _Ivory_
s 6
f 115/297/64 109/284/61 108/283/65 114/298/65 
usemtl FrontCol
s 1
f 104/299/63 116/300/63 115/301/63 109/302/63 
s off
f 104/267/49 94/242/49 117/303/49 116/304/49 
s 3
f 109/305/62 103/306/62 102/307/62 104/308/62 
s 1
f 105/309/65 111/310/65 117/311/65 94/312/65 
f 111/313/60 113/314/60 118/315/60 117/316/60 
s off
f 113/292/51 112/291/51 119/317/51 120/318/51 
s 1
f 114/319/66 121/320/66 119/321/66 112/322/66 
usemtl _Ivory_
s 2
f 122/323/57 115/297/64 114/298/57 121/324/57 
usemtl FrontCol
s 1
f 116/325/66 123/326/66 122/327/66 115/328/66 
s off
f 116/304/49 118/329/49 124/330/49 123/331/49 
f 116/304/49 117/303/49 118/329/49 
s 1
f 113/332/59 120/333/59 124/334/59 118/335/59 
s off
f 120/318/51 119/317/51 125/336/51 126/337/51 
s 1
f 121/338/67 127/339/67 125/340/67 119/341/67 
f 127/339/67 121/338/67 122/342/67 123/343/67 
s off
f 123/331/49 124/330/49 128/344/49 127/345/49 
s 1
f 120/346/68 126/347/68 128/348/68 124/349/68 
f 129/350/69 130/351/69 128/352/69 126/353/69 
s off
f 131/354/70 132/355/70 130/356/70 129/357/70 
s 1
f 125/358/71 127/359/71 132/360/71 131/361/71 
s off
f 127/345/49 128/344/49 130/362/49 132/363/49 
f 126/337/51 125/336/51 131/364/51 129/365/51 
# 41 polygons - 2 triangles

