# 3ds Max Wavefront OBJ Exporter v0.97b - (c)2007 guruware
# 创建的文件:28.05.2019 13:29:10

mtllib louti.mtl

#
# object louti
#

#
# object Stair1
#

#
# object Group1
#

v  9177.5391 3722.6179 -0.3902
v  8303.3965 3722.6179 -0.3902
v  8303.3965 3384.1982 -0.3902
v  9177.5391 3384.1982 -0.3902
v  9177.5391 3722.6179 -3841.3196
v  8303.3965 3722.6179 -3841.3196
v  9177.5391 3384.1982 -3841.3196
v  1310.2563 338.4198 -0.3902
v  1310.2563 338.4198 -3841.3196
v  436.1138 0.0000 -0.3902
v  436.1138 0.0000 -3841.3196
v  436.1138 338.4198 -0.3902
v  436.1138 338.4198 -3841.3196
v  2184.3989 1015.2595 -0.3902
v  1310.2563 676.8397 -0.3902
v  3932.6841 1692.0991 -0.3902
v  3058.5415 1353.6793 -0.3902
v  5680.9692 2368.9387 -0.3902
v  4806.8267 2030.5189 -0.3902
v  7429.2544 3045.7783 -0.3902
v  6555.1113 2707.3586 -0.3902
v  7429.2544 3384.1982 -0.3902
v  8303.3965 3384.1982 -3841.3196
v  7429.2544 3384.1982 -3841.3196
v  6555.1113 2707.3586 -3841.3196
v  7429.2544 3045.7783 -3841.3196
v  4806.8267 2030.5189 -3841.3196
v  5680.9692 2368.9387 -3841.3196
v  3058.5415 1353.6793 -3841.3196
v  3932.6841 1692.0991 -3841.3196
v  1310.2563 676.8397 -3841.3196
v  2184.3989 1015.2595 -3841.3196
v  436.1138 676.8397 -3841.3196
v  436.1138 676.8397 -0.3902
v  1310.2563 1015.2595 -0.3902
v  1310.2563 1015.2595 -3841.3196
v  2184.3989 1353.6793 -0.3902
v  2184.3989 1353.6793 -3841.3196
v  3058.5415 1692.0991 -0.3902
v  3058.5415 1692.0991 -3841.3196
v  3932.6841 2030.5189 -0.3902
v  3932.6841 2030.5189 -3841.3196
v  4806.8267 2368.9387 -0.3902
v  4806.8267 2368.9387 -3841.3196
v  5680.9692 2707.3586 -0.3902
v  5680.9692 2707.3586 -3841.3196
v  6555.1113 3045.7783 -0.3902
v  6555.1113 3045.7783 -3841.3196
# 48 vertices

vn 0.0000 0.0000 1.0000
vn 0.0000 1.0000 -0.0000
vn 1.0000 0.0000 -0.0000
vn 0.3610 -0.9326 -0.0000
vn -0.7943 0.0000 0.6075
vn -0.7071 0.0000 0.7071
vn -1.0000 0.0000 -0.0000
vn 0.0000 0.0000 -1.0000
# 8 vertex normals

vt 118.1102 59.0551 0.0000
vt 106.2992 59.0551 0.0000
vt 106.2992 53.1496 0.0000
vt 118.1102 53.1496 0.0000
vt 118.1102 0.0000 0.0000
vt 118.1102 49.2126 0.0000
vt 106.2992 49.2126 0.0000
vt 106.2992 0.0000 0.0000
vt 0.0000 59.0551 0.0000
vt 0.0000 53.1496 0.0000
vt 49.2126 53.1496 0.0000
vt 49.2126 59.0551 0.0000
vt 0.0000 10.5641 0.0000
vt 49.2126 10.5641 0.0000
vt 49.2126 129.4102 0.0000
vt 0.0000 129.4102 0.0000
vt 0.0000 -2.6410 0.0000
vt 49.2126 -2.6410 0.0000
vt 0.0000 -5.9055 0.0000
vt 0.0000 0.0000 0.0000
vt -49.2126 0.0000 0.0000
vt -49.2126 -5.9055 0.0000
vt 11.8110 0.0000 0.0000
vt 23.6220 11.8110 0.0000
vt 11.8110 5.9055 0.0000
vt 47.2441 23.6220 0.0000
vt 35.4331 17.7165 0.0000
vt 70.8661 35.4331 0.0000
vt 59.0551 29.5276 0.0000
vt 94.4882 47.2441 0.0000
vt 82.6772 41.3386 0.0000
vt 94.4882 53.1496 0.0000
vt 94.4882 49.2126 0.0000
vt 94.4882 0.0000 0.0000
vt -49.2126 59.0551 0.0000
vt -49.2126 53.1496 0.0000
vt -118.1102 53.1496 0.0000
vt -106.2992 53.1496 0.0000
vt -106.2992 59.0551 0.0000
vt -118.1102 59.0551 0.0000
vt -94.4882 53.1496 0.0000
vt -82.6772 41.3386 0.0000
vt -94.4882 47.2441 0.0000
vt -59.0551 29.5276 0.0000
vt -70.8661 35.4331 0.0000
vt -35.4331 17.7165 0.0000
vt -47.2441 23.6220 0.0000
vt -11.8110 5.9055 0.0000
vt -23.6220 11.8110 0.0000
vt -11.8110 0.0000 0.0000
vt 0.0000 5.9055 0.0000
vt -49.2126 5.9055 0.0000
vt 11.8110 49.2126 0.0000
vt 0.0000 49.2126 0.0000
vt 0.0000 11.8110 0.0000
vt -49.2126 11.8110 0.0000
vt 11.8110 11.8110 0.0000
vt 23.6220 0.0000 0.0000
vt 23.6220 49.2126 0.0000
vt 0.0000 17.7165 0.0000
vt -49.2126 17.7165 0.0000
vt 23.6220 17.7165 0.0000
vt 35.4331 0.0000 0.0000
vt 35.4331 49.2126 0.0000
vt 0.0000 23.6220 0.0000
vt -49.2126 23.6220 0.0000
vt 35.4331 23.6220 0.0000
vt 47.2441 0.0000 0.0000
vt 47.2441 49.2126 0.0000
vt 0.0000 29.5276 0.0000
vt -49.2126 29.5276 0.0000
vt 47.2441 29.5276 0.0000
vt 59.0551 0.0000 0.0000
vt 59.0551 49.2126 0.0000
vt 0.0000 35.4331 0.0000
vt -49.2126 35.4331 0.0000
vt 59.0551 35.4331 0.0000
vt 70.8661 0.0000 0.0000
vt 70.8661 49.2126 0.0000
vt 0.0000 41.3386 0.0000
vt -49.2126 41.3386 0.0000
vt 70.8661 41.3386 0.0000
vt 82.6772 0.0000 0.0000
vt 82.6772 49.2126 0.0000
vt 0.0000 47.2441 0.0000
vt -49.2126 47.2441 0.0000
vt 82.6772 47.2441 0.0000
vt -82.6772 47.2441 0.0000
vt -70.8661 41.3386 0.0000
vt -59.0551 35.4331 0.0000
vt -47.2441 29.5276 0.0000
vt -35.4331 23.6220 0.0000
vt -23.6220 17.7165 0.0000
vt -11.8110 11.8110 0.0000
# 94 texture coords

o Group1
g Group1
usemtl Polished
s off
f 1/1/1 2/2/1 3/3/1 4/4/1 
f 1/5/2 5/6/2 6/7/2 2/8/2 
f 1/9/3 4/10/3 7/11/3 5/12/3 
f 8/13/4 9/14/4 7/15/4 4/16/4 
f 10/17/4 11/18/4 9/14/4 8/13/4 
f 10/19/5 12/20/6 13/21/7 11/22/7 
f 8/23/1 4/4/1 12/20/6 10/19/5 
f 12/20/6 4/4/1 14/24/1 15/25/1 
f 14/24/1 4/4/1 16/26/1 17/27/1 
f 16/26/1 4/4/1 18/28/1 19/29/1 
f 18/28/1 4/4/1 20/30/1 21/31/1 
f 20/30/1 4/4/1 22/32/1 
f 22/32/1 4/4/1 3/3/1 
f 3/8/2 23/7/2 24/33/2 22/34/2 
f 3/10/7 2/9/7 6/35/7 23/36/7 
f 7/37/8 23/38/8 6/39/8 5/40/8 
f 7/37/8 24/41/8 23/38/8 
f 7/37/8 25/42/8 26/43/1 24/41/8 
f 7/37/8 27/44/8 28/45/8 25/42/8 
f 7/37/8 29/46/8 30/47/8 27/44/8 
f 7/37/8 31/48/8 32/49/8 29/46/8 
f 9/50/8 31/48/8 7/37/8 
f 9/50/8 13/20/8 33/51/8 31/48/8 
f 13/20/8 9/50/8 11/19/8 
f 12/20/6 34/51/6 33/52/7 13/21/7 
f 34/51/6 12/20/6 15/25/1 
f 15/23/2 31/53/2 33/54/2 34/20/2 
f 15/51/7 35/55/7 36/56/7 31/52/7 
f 35/57/1 15/25/1 14/24/1 
f 14/58/2 32/59/2 36/53/2 35/23/2 
f 14/55/7 37/60/7 38/61/7 32/56/7 
f 37/62/1 14/24/1 17/27/1 
f 17/63/2 29/64/2 38/59/2 37/58/2 
f 17/60/7 39/65/7 40/66/7 29/61/7 
f 39/67/1 17/27/1 16/26/1 
f 16/68/2 30/69/2 40/64/2 39/63/2 
f 16/65/7 41/70/7 42/71/7 30/66/7 
f 41/72/1 16/26/1 19/29/1 
f 19/73/2 27/74/2 42/69/2 41/68/2 
f 19/70/7 43/75/7 44/76/7 27/71/7 
f 43/77/1 19/29/1 18/28/1 
f 18/78/2 28/79/2 44/74/2 43/73/2 
f 18/75/7 45/80/7 46/81/7 28/76/7 
f 45/82/1 18/28/1 21/31/1 
f 21/83/2 25/84/2 46/79/2 45/78/2 
f 21/80/7 47/85/7 48/86/7 25/81/7 
f 47/87/1 21/31/1 20/30/1 
f 20/34/2 26/33/2 48/84/2 47/83/2 
f 20/85/7 22/10/7 24/36/7 26/86/7 
f 26/43/1 25/42/8 48/88/8 
f 25/42/8 28/45/8 46/89/8 
f 28/45/8 27/44/8 44/90/8 
f 27/44/8 30/47/8 42/91/8 
f 30/47/8 29/46/8 40/92/8 
f 29/46/8 32/49/8 38/93/8 
f 32/49/8 31/48/8 36/94/8 
# 36 polygons - 20 triangles

#
# object Group2
#

v  8740.4678 4061.0378 -0.3902
v  8740.4678 6091.5566 -0.3902
v  -0.9575 2707.3586 -0.3902
v  -0.9575 676.8397 -0.3902
v  8740.4678 4061.0378 -61.8451
v  8740.4678 6091.5566 -61.8451
v  -0.9575 676.8397 -61.8451
v  -0.9575 2707.3586 -61.8451
# 8 vertices

vn 0.0000 0.0000 1.0000
vn 1.0000 0.0000 -0.0000
vn 0.0000 0.0000 -1.0000
vn 0.3610 -0.9326 -0.0000
vn -1.0000 0.0000 -0.0000
vn -0.3610 0.9326 -0.0000
# 6 vertex normals

vt 112.2047 64.9606 0.0000
vt 112.2047 100.3937 0.0000
vt -5.9055 41.3386 0.0000
vt -5.9055 5.9055 0.0000
vt 0.7874 64.9606 0.0000
vt 0.7874 100.3937 0.0000
vt 0.0000 100.3937 0.0000
vt 0.0000 64.9606 0.0000
vt -112.2047 64.9606 0.0000
vt 5.9055 5.9055 0.0000
vt 5.9055 41.3386 0.0000
vt -112.2047 100.3937 0.0000
vt 0.7874 129.4102 0.0000
vt 0.0000 129.4102 0.0000
vt 0.0000 -2.6410 0.0000
vt 0.7874 -2.6410 0.0000
vt 0.0000 5.9055 0.0000
vt 0.0000 41.3386 0.0000
vt -0.7874 41.3386 0.0000
vt -0.7874 5.9055 0.0000
vt 0.0000 145.2564 0.0000
vt -0.7874 145.2564 0.0000
vt -0.7874 13.2051 0.0000
vt 0.0000 13.2051 0.0000
# 24 texture coords

o Group2
g Group2
usemtl Transluc
s off
f 49/95/9 50/96/9 51/97/9 52/98/9 
f 53/99/10 54/100/10 50/101/10 49/102/10 
f 53/103/11 55/104/11 56/105/11 54/106/11 
f 53/107/12 49/108/12 52/109/12 55/110/12 
f 52/111/13 51/112/13 56/113/13 55/114/13 
f 50/115/14 54/116/14 56/117/14 51/118/14 
# 6 polygons

#
# object Group3
#

v  8740.4678 5978.7505 -0.3902
v  8740.4678 6091.5566 -0.3902
v  -0.9575 2707.3586 -0.3902
v  -0.9575 2594.5520 -0.3902
v  8740.4678 5978.7505 -154.0274
v  8740.4678 6091.5566 -154.0274
v  -0.9575 2594.5520 -154.0274
v  -0.9575 2707.3586 -154.0274
# 8 vertices

vn 0.0000 0.0000 1.0000
vn 1.0000 0.0000 -0.0000
vn 0.0000 0.0000 -1.0000
vn 0.3610 -0.9326 -0.0000
vn -1.0000 0.0000 -0.0000
vn -0.3610 0.9326 -0.0000
# 6 vertex normals

vt 112.2047 98.4252 0.0000
vt 112.2047 100.3937 0.0000
vt -5.9055 41.3386 0.0000
vt -5.9055 39.3701 0.0000
vt 1.9685 98.4252 0.0000
vt 1.9685 100.3937 0.0000
vt 0.0000 100.3937 0.0000
vt 0.0000 98.4252 0.0000
vt -112.2047 98.4252 0.0000
vt 5.9055 39.3701 0.0000
vt 5.9055 41.3386 0.0000
vt -112.2047 100.3937 0.0000
vt 1.9685 144.3760 0.0000
vt 0.0000 144.3760 0.0000
vt 0.0000 12.3248 0.0000
vt 1.9685 12.3248 0.0000
vt 0.0000 39.3701 0.0000
vt 0.0000 41.3386 0.0000
vt -1.9685 41.3386 0.0000
vt -1.9685 39.3701 0.0000
vt 0.0000 145.2564 0.0000
vt -1.9685 145.2564 0.0000
vt -1.9685 13.2051 0.0000
vt 0.0000 13.2051 0.0000
# 24 texture coords

o Group3
g Group3
usemtl Metal_Co
s off
f 57/119/15 58/120/15 59/121/15 60/122/15 
f 61/123/16 62/124/16 58/125/16 57/126/16 
f 61/127/17 63/128/17 64/129/17 62/130/17 
f 61/131/18 57/132/18 60/133/18 63/134/18 
f 60/135/19 59/136/19 64/137/19 63/138/19 
f 58/139/20 62/140/20 64/141/20 59/142/20 
# 6 polygons

